<?xml version="1.0" encoding="utf-8"?>
<!-- Generator: Adobe Illustrator 22.1.0, SVG Export Plug-In . SVG Version: 6.00 Build 0)  -->
<svg version="1.1" id="Layer_1" xmlns="http://www.w3.org/2000/svg" xmlns:xlink="http://www.w3.org/1999/xlink" x="0px" y="0px"
	 viewBox="0 0 500.7 101.8" style="enable-background:new 0 0 500.7 101.8;" xml:space="preserve">
<style type="text/css">
	.st0{fill:#3D813F;}
	.st1{clip-path:url(#SVGID_2_);fill:#3D813F;}
	.st2{clip-path:url(#SVGID_4_);fill:#3D813F;}
	.st3{clip-path:url(#SVGID_6_);fill:#3D813F;}
</style>
<g>
	<polygon class="st0" points="198.6,2 198.6,98.5 275.7,98.5 275.7,82.3 218.1,82.3 218.1,2 	"/>
	<g>
		<defs>
			<rect id="SVGID_1_" x="2.8" y="1.9" width="495.2" height="97.9"/>
		</defs>
		<clipPath id="SVGID_2_">
			<use xlink:href="#SVGID_1_"  style="overflow:visible;"/>
		</clipPath>
		<path class="st1" d="M99,2.2v16.1h47.7c0,0,9.5,0.3,11,11l0,1.1c0,0-0.3,11.1-11.3,11.9h-28.1V24.7H99v73.8h19.3V58.4h13.2
			c0,0,6.7,0,12.1,8.8l19.7,31.3h22.5l-21.5-35.2c0,0-3.8-6.8-7.5-8.3l0-0.1c0,0,8.7-1.8,14.7-10.7c6.1-8.9,6.1-18.5,1.9-27.3
			c-4.2-8.8-13.2-14.3-23.3-14.9L99,2.2z"/>
	</g>
	<path class="st0" d="M336,24.6l13.3,35.8H323L336,24.6z M326,2.1l-37.5,96.4h20.6l8-21.9h38.5l8.4,21.9h21.2L346.5,2.1H326z"/>
	<g>
		<defs>
			<rect id="SVGID_3_" x="2.8" y="1.9" width="495.2" height="97.9"/>
		</defs>
		<clipPath id="SVGID_4_">
			<use xlink:href="#SVGID_3_"  style="overflow:visible;"/>
		</clipPath>
		<path class="st2" d="M394.8,2.1v59.7c0,0-0.7,12.5,9.1,24.3c9.8,11.7,21.7,13.4,28.6,13.8l2.7,0c0,0,10.8,0,20.1-6.6
			c9.3-6.7,12.1-12,14.6-18.6c2.5-6.6,2.4-12.3,2.4-12.3V2.1h-19.4v60.1c0,0-0.4,16.4-18.2,18.2h-2.3c0,0-17-0.6-18.2-19V2.2
			L394.8,2.1z"/>
	</g>
	<polygon class="st0" points="2.8,2.1 2.8,13.5 2.8,18.4 2.8,98.5 79.7,98.5 79.7,82.2 22.2,82.3 22.2,58.3 68.3,58.3 68.3,42.1 
		22.2,42.1 22.2,18.4 27.9,18.4 27.9,18.4 79.7,18.4 79.7,2.1 	"/>
	<g>
		<defs>
			<rect id="SVGID_5_" x="2.8" y="1.9" width="495.2" height="97.9"/>
		</defs>
		<clipPath id="SVGID_6_">
			<use xlink:href="#SVGID_5_"  style="overflow:visible;"/>
		</clipPath>
		<path class="st3" d="M488.2,19.6c-4.5,0-8.1-3.6-8.1-8.1c0-4.5,3.6-8.1,8.1-8.1s8.1,3.6,8.1,8.1C496.3,15.9,492.7,19.6,488.2,19.6
			 M488.3,1.9c-5.3,0-9.7,4.3-9.7,9.7c0,5.3,4.3,9.6,9.7,9.6c5.3,0,9.7-4.3,9.7-9.6C497.9,6.2,493.6,1.9,488.3,1.9"/>
		<path class="st3" d="M488.6,10.5h-2.9V7.4c0,0,0.8,0,2.6,0c1.7,0,1.9,1.2,1.9,1.2l0,0.8C490.2,10.4,488.6,10.5,488.6,10.5
			 M491.1,13.6c0,0-0.6-1.2-1.9-1.8c0,0,1.6-0.1,2.4-1.4c0.7-1.2,0.6-2.6,0-3.2c-0.5-0.5-1.1-1.3-2.8-1.2c-1.7,0-4.7,0-4.7,0v10.4
			h1.7V12h1.2c0,0,1-0.1,1.9,1.3c0.9,1.4,1.8,3.1,1.8,3.1h2.1L491.1,13.6z"/>
	</g>
</g>
</svg>
